<?xml version="1.0" standalone="no"?>
<!DOCTYPE svg PUBLIC "-//W3C//DTD SVG 20010904//EN"
 "http://www.w3.org/TR/2001/REC-SVG-20010904/DTD/svg10.dtd">
<svg version="1.0" xmlns="http://www.w3.org/2000/svg"
 width="100.000000pt" height="100.000000pt" viewBox="0 0 100.000000 100.000000"
 preserveAspectRatio="xMidYMid meet">
<metadata>
Created by potrace 1.11, written by Peter Selinger 2001-2013
</metadata>
<g transform="translate(0.000000,100.000000) scale(0.100000,-0.100000)"
fill="#000000" stroke="none">
<path d="M435 918 c-102 -69 -103 -70 -100 -142 1 -35 5 -68 8 -73 10 -16 149
-9 177 10 14 9 28 16 33 17 4 0 8 0 10 1 51 16 116 13 165 -6 34 -14 46 -15
55 -6 9 10 0 24 -41 62 -52 48 -229 179 -241 179 -3 0 -33 -19 -66 -42z"/>
<path d="M212 740 c-42 -41 -42 -57 2 -41 26 11 62 66 48 75 -5 3 -27 -13 -50
-34z"/>
<path d="M583 686 c-24 -11 -32 -25 -39 -67 -6 -34 16 -52 112 -93 99 -41 137
-65 164 -99 41 -51 38 -146 -4 -192 -49 -53 -162 -76 -254 -52 -48 13 -55 13
-75 -3 -12 -9 -32 -20 -44 -24 -17 -5 -23 -15 -23 -34 0 -15 -7 -38 -16 -50
-12 -17 -12 -22 -2 -23 40 -3 194 -4 200 -2 4 2 0 19 -8 38 -21 51 -19 53 39
38 68 -19 170 -12 222 15 88 45 132 125 129 234 -3 86 -3 88 -33 153 -32 68
-117 178 -132 169 -4 -2 -7 -32 -6 -65 3 -85 -13 -89 -48 -10 -10 24 -29 50
-42 58 -27 18 -109 23 -140 9z"/>
<path d="M111 624 c-16 -21 -45 -67 -62 -103 -29 -58 -33 -76 -32 -146 0 -116
42 -192 133 -241 50 -27 224 -24 252 4 4 4 -11 8 -35 8 -59 0 -105 21 -123 55
-8 16 -12 29 -8 29 4 0 2 6 -4 13 -6 6 -11 62 -11 122 -1 61 -1 117 -1 125 -1
8 0 44 1 80 2 65 2 65 -27 68 -16 2 -34 8 -40 13 -8 7 -22 -2 -43 -27z"/>
<path d="M358 641 c-7 -2 -15 -8 -18 -12 -3 -5 -5 -89 -5 -188 2 -212 8 -231
76 -231 l40 0 -2 72 c-3 90 12 98 46 26 33 -69 69 -92 148 -92 75 0 101 23
100 86 -1 36 -7 47 -34 70 -19 16 -58 37 -89 48 -132 48 -182 100 -174 182 3
35 2 36 -36 40 -21 2 -45 2 -52 -1z"/>
</g>
</svg>
